<svg aria-hidden="true" style="position: absolute; width: 0; height: 0; overflow: hidden;" version="1.1" xmlns="http://www.w3.org/2000/svg" xmlns:xlink="http://www.w3.org/1999/xlink">
<defs>
<symbol id="icon-instagram-2" viewBox="0 0 32 32">
<path fill="#f4f4fd" style="fill: var(--color1, #f4f4fd)" d="M26.646 6.272c-0.050-1.134-0.233-1.913-0.496-2.588-0.271-0.717-0.688-1.358-1.234-1.892-0.533-0.542-1.179-0.963-1.888-1.229-0.679-0.263-1.454-0.446-2.588-0.496-1.142-0.054-1.505-0.067-4.401-0.067s-3.259 0.013-4.397 0.063c-1.134 0.050-1.913 0.233-2.588 0.496-0.717 0.271-1.359 0.688-1.892 1.234-0.542 0.533-0.963 1.179-1.229 1.888-0.263 0.679-0.446 1.454-0.496 2.588-0.054 1.142-0.067 1.505-0.067 4.401s0.013 3.259 0.063 4.397c0.050 1.133 0.233 1.913 0.496 2.588 0.271 0.717 0.692 1.359 1.233 1.892 0.533 0.542 1.179 0.963 1.888 1.229 0.679 0.263 1.454 0.446 2.588 0.496 1.138 0.050 1.5 0.063 4.397 0.063s3.259-0.012 4.397-0.063c1.133-0.050 1.913-0.233 2.588-0.496 1.434-0.554 2.567-1.688 3.122-3.121 0.262-0.679 0.446-1.455 0.496-2.588 0.050-1.138 0.063-1.5 0.063-4.397s-0.004-3.259-0.054-4.397zM24.725 14.982c-0.046 1.042-0.221 1.605-0.367 1.98-0.359 0.929-1.096 1.667-2.025 2.025-0.375 0.146-0.942 0.321-1.98 0.367-1.125 0.050-1.463 0.062-4.309 0.062s-3.188-0.012-4.309-0.062c-1.042-0.046-1.604-0.221-1.98-0.367-0.463-0.171-0.883-0.442-1.225-0.796-0.354-0.346-0.625-0.763-0.796-1.225-0.146-0.375-0.321-0.942-0.367-1.98-0.050-1.125-0.063-1.463-0.063-4.309s0.012-3.188 0.063-4.309c0.046-1.042 0.221-1.604 0.367-1.98 0.171-0.463 0.442-0.883 0.8-1.225 0.346-0.354 0.762-0.625 1.225-0.796 0.375-0.146 0.942-0.321 1.98-0.367 1.125-0.050 1.463-0.063 4.309-0.063 2.851 0 3.188 0.013 4.309 0.063 1.042 0.046 1.605 0.221 1.98 0.367 0.462 0.171 0.883 0.442 1.225 0.796 0.354 0.346 0.625 0.763 0.796 1.225 0.146 0.375 0.321 0.942 0.367 1.98 0.050 1.125 0.063 1.463 0.063 4.309s-0.013 3.18-0.063 4.305z"></path>
<path fill="#f4f4fd" style="fill: var(--color1, #f4f4fd)" d="M16.040 5.188c-3.026 0-5.48 2.455-5.48 5.48s2.455 5.48 5.48 5.48c3.026 0 5.48-2.455 5.48-5.48s-2.455-5.48-5.48-5.48zM16.040 14.223c-1.963 0-3.555-1.592-3.555-3.555s1.592-3.555 3.555-3.555c1.963 0 3.555 1.592 3.555 3.555s-1.592 3.555-3.555 3.555z"></path>
<path fill="#f4f4fd" style="fill: var(--color1, #f4f4fd)" d="M23.016 4.972c0 0.707-0.573 1.279-1.279 1.279s-1.279-0.573-1.279-1.279c0-0.707 0.573-1.279 1.279-1.279s1.279 0.573 1.279 1.279z"></path>
</symbol>
<symbol id="icon-close-black-18dp-2-1" viewBox="0 0 32 32">
<path d="M32 3.223l-3.223-3.223-12.777 12.777-12.777-12.777-3.223 3.223 12.777 12.777-12.777 12.777 3.223 3.223 12.777-12.777 12.777 12.777 3.223-3.223-12.777-12.777 12.777-12.777z"></path>
</symbol>
<symbol id="icon-facebook-1" viewBox="0 0 32 32">
<path fill="#f4f4fd" style="fill: var(--color1, #f4f4fd)" d="M21.329 5.313h2.921v-5.088c-0.504-0.069-2.237-0.225-4.256-0.225-4.212 0-7.097 2.649-7.097 7.519v4.481h-4.648v5.688h4.648v14.312h5.699v-14.311h4.46l0.708-5.688h-5.169v-3.919c0.001-1.644 0.444-2.769 2.735-2.769z"></path>
</symbol>
<symbol id="icon-instagram-21" viewBox="0 0 32 32">
<path fill="#f4f4fd" style="fill: var(--color1, #f4f4fd)" d="M31.969 9.408c-0.075-1.7-0.35-2.869-0.744-3.882-0.406-1.075-1.031-2.038-1.85-2.838-0.8-0.813-1.769-1.444-2.832-1.844-1.019-0.394-2.182-0.669-3.882-0.744-1.713-0.081-2.257-0.1-6.601-0.1s-4.888 0.019-6.595 0.094c-1.7 0.075-2.869 0.35-3.882 0.744-1.075 0.406-2.038 1.031-2.838 1.85-0.813 0.8-1.444 1.769-1.844 2.832-0.394 1.019-0.669 2.182-0.744 3.882-0.081 1.713-0.1 2.257-0.1 6.601s0.019 4.888 0.094 6.595c0.075 1.7 0.35 2.869 0.744 3.882 0.406 1.075 1.038 2.038 1.85 2.838 0.8 0.813 1.769 1.444 2.832 1.844 1.019 0.394 2.182 0.669 3.882 0.744 1.706 0.075 2.25 0.094 6.595 0.094s4.888-0.018 6.595-0.094c1.7-0.075 2.869-0.35 3.882-0.744 2.151-0.831 3.851-2.532 4.682-4.682 0.394-1.019 0.669-2.182 0.744-3.882 0.075-1.707 0.094-2.251 0.094-6.595s-0.006-4.888-0.081-6.595zM29.087 22.473c-0.069 1.563-0.331 2.407-0.55 2.969-0.538 1.394-1.644 2.501-3.038 3.038-0.563 0.219-1.413 0.481-2.969 0.55-1.688 0.075-2.194 0.094-6.464 0.094s-4.782-0.018-6.464-0.094c-1.563-0.069-2.407-0.331-2.969-0.55-0.694-0.256-1.325-0.663-1.838-1.194-0.531-0.519-0.938-1.144-1.194-1.838-0.219-0.563-0.481-1.413-0.55-2.969-0.075-1.688-0.094-2.194-0.094-6.464s0.019-4.782 0.094-6.464c0.069-1.563 0.331-2.407 0.55-2.969 0.256-0.694 0.663-1.325 1.2-1.838 0.519-0.531 1.144-0.938 1.838-1.194 0.563-0.219 1.413-0.481 2.969-0.55 1.688-0.075 2.194-0.094 6.464-0.094 4.276 0 4.782 0.019 6.464 0.094 1.563 0.069 2.407 0.331 2.969 0.55 0.694 0.256 1.325 0.662 1.838 1.194 0.531 0.519 0.938 1.144 1.194 1.838 0.219 0.563 0.481 1.413 0.55 2.969 0.075 1.688 0.094 2.194 0.094 6.464s-0.019 4.77-0.094 6.457z"></path>
<path fill="#f4f4fd" style="fill: var(--color1, #f4f4fd)" d="M16.059 7.782c-4.538 0-8.22 3.682-8.22 8.22s3.682 8.22 8.22 8.22c4.538 0 8.22-3.682 8.22-8.22s-3.682-8.22-8.22-8.22zM16.059 21.335c-2.944 0-5.332-2.388-5.332-5.332s2.388-5.332 5.332-5.332c2.944 0 5.332 2.388 5.332 5.332s-2.388 5.332-5.332 5.332z"></path>
<path fill="#f4f4fd" style="fill: var(--color1, #f4f4fd)" d="M26.524 7.457c0 1.060-0.859 1.919-1.919 1.919s-1.919-0.859-1.919-1.919c0-1.060 0.859-1.919 1.919-1.919s1.919 0.859 1.919 1.919z"></path>
</symbol>
<symbol id="icon-linkedin-1" viewBox="0 0 32 32">
<path fill="#fff" style="fill: var(--color2, #fff)" d="M0 0h32v32h-32v-32z"></path>
<path fill="#f4f4fd" style="fill: var(--color1, #f4f4fd)" d="M31.992 32v-0.001h0.008v-11.736c0-5.741-1.236-10.164-7.948-10.164-3.227 0-5.392 1.771-6.276 3.449h-0.093v-2.913h-6.364v21.364h6.627v-10.579c0-2.785 0.528-5.479 3.977-5.479 3.399 0 3.449 3.179 3.449 5.657v10.401h6.62z"></path>
<path fill="#f4f4fd" style="fill: var(--color1, #f4f4fd)" d="M0.528 10.636h6.635v21.364h-6.635v-21.364z"></path>
<path fill="#f4f4fd" style="fill: var(--color1, #f4f4fd)" d="M3.843-0c-2.121 0-3.843 1.721-3.843 3.843s1.721 3.879 3.843 3.879c2.121 0 3.843-1.757 3.843-3.879-0.001-2.121-1.723-3.843-3.843-3.843v0z"></path>
</symbol>
<symbol id="icon-twitter-1" viewBox="0 0 32 32">
<path fill="#f4f4fd" style="fill: var(--color1, #f4f4fd)" d="M32 6.078c-1.19 0.522-2.458 0.868-3.78 1.036 1.36-0.812 2.398-2.088 2.886-3.626-1.268 0.756-2.668 1.29-4.16 1.588-1.204-1.282-2.92-2.076-4.792-2.076-3.632 0-6.556 2.948-6.556 6.562 0 0.52 0.044 1.020 0.152 1.496-5.454-0.266-10.28-2.88-13.522-6.862-0.566 0.982-0.898 2.106-0.898 3.316 0 2.272 1.17 4.286 2.914 5.452-1.054-0.020-2.088-0.326-2.964-0.808 0 0.020 0 0.046 0 0.072 0 3.188 2.274 5.836 5.256 6.446-0.534 0.146-1.116 0.216-1.72 0.216-0.42 0-0.844-0.024-1.242-0.112 0.85 2.598 3.262 4.508 6.13 4.57-2.232 1.746-5.066 2.798-8.134 2.798-0.538 0-1.054-0.024-1.57-0.090 2.906 1.874 6.35 2.944 10.064 2.944 12.072 0 18.672-10 18.672-18.668 0-0.29-0.010-0.57-0.024-0.848 1.302-0.924 2.396-2.078 3.288-3.406z"></path>
</symbol>
</defs>
</svg>
