<svg xmlns="http://www.w3.org/2000/svg" aria-hidden="true" style="position:absolute;width:0;height:0;overflow:hidden">
  <defs>
    <symbol id="icon-instagram-2" viewBox="0 0 32 32">
      <path fill="#f4f4fd" d="M26.646 6.272c-.05-1.134-.233-1.913-.496-2.588a5.211 5.211 0 0 0-1.234-1.892A5.23 5.23 0 0 0 23.028.563C22.349.3 21.574.117 20.44.067 19.298.013 18.935 0 16.039 0s-3.259.013-4.397.063c-1.134.05-1.913.233-2.588.496a5.203 5.203 0 0 0-1.892 1.234 5.23 5.23 0 0 0-1.229 1.888c-.263.679-.446 1.454-.496 2.588-.054 1.142-.067 1.505-.067 4.401s.013 3.259.063 4.397c.05 1.133.233 1.913.496 2.588a5.265 5.265 0 0 0 1.233 1.892 5.23 5.23 0 0 0 1.888 1.229c.679.263 1.454.446 2.588.496 1.138.05 1.5.063 4.397.063s3.259-.012 4.397-.063c1.133-.05 1.913-.233 2.588-.496a5.459 5.459 0 0 0 3.122-3.121c.262-.679.446-1.455.496-2.588.05-1.138.063-1.5.063-4.397s-.004-3.259-.054-4.397zm-1.921 8.71c-.046 1.042-.221 1.605-.367 1.98a3.54 3.54 0 0 1-2.025 2.025c-.375.146-.942.321-1.98.367-1.125.05-1.463.062-4.309.062s-3.188-.012-4.309-.062c-1.042-.046-1.604-.221-1.98-.367a3.284 3.284 0 0 1-1.225-.796 3.324 3.324 0 0 1-.796-1.225c-.146-.375-.321-.942-.367-1.98-.05-1.125-.063-1.463-.063-4.309s.012-3.188.063-4.309c.046-1.042.221-1.604.367-1.98.171-.463.442-.883.8-1.225a3.316 3.316 0 0 1 1.225-.796c.375-.146.942-.321 1.98-.367 1.125-.05 1.463-.063 4.309-.063 2.851 0 3.188.013 4.309.063 1.042.046 1.605.221 1.98.367.462.171.883.442 1.225.796.354.346.625.763.796 1.225.146.375.321.942.367 1.98.05 1.125.063 1.463.063 4.309s-.013 3.18-.063 4.305z" style="fill:var(--color1, #f4f4fd)"/>
      <path fill="#f4f4fd" d="M16.04 5.188c-3.026 0-5.48 2.455-5.48 5.48s2.455 5.48 5.48 5.48c3.026 0 5.48-2.455 5.48-5.48s-2.455-5.48-5.48-5.48zm0 9.035a3.555 3.555 0 1 1 .001-7.111 3.555 3.555 0 0 1-.001 7.111zM23.016 4.972a1.279 1.279 0 1 1-2.558 0 1.279 1.279 0 0 1 2.558 0z" style="fill:var(--color1, #f4f4fd)"/>
    </symbol>
    <symbol id="icon-close-black-18dp-2-1" viewBox="0 0 32 32">
      <path d="M32 3.223 28.777 0 16 12.777 3.223 0 0 3.223 12.777 16 0 28.777 3.223 32 16 19.223 28.777 32 32 28.777 19.223 16 32 3.223z"/>
    </symbol>
    <symbol id="icon-facebook-1" viewBox="0 0 32 32">
      <path fill="#f4f4fd" d="M21.329 5.313h2.921V.225C23.746.156 22.013 0 19.994 0c-4.212 0-7.097 2.649-7.097 7.519V12H8.249v5.688h4.648V32h5.699V17.689h4.46l.708-5.688h-5.169V8.082c.001-1.644.444-2.769 2.735-2.769z" style="fill:var(--color1, #f4f4fd)"/>
    </symbol>
    <symbol id="icon-instagram-21" viewBox="0 0 32 32">
      <path fill="#f4f4fd" d="M31.969 9.408c-.075-1.7-.35-2.869-.744-3.882a7.803 7.803 0 0 0-1.85-2.838A7.867 7.867 0 0 0 26.543.844C25.524.45 24.361.175 22.661.1 20.948.019 20.404 0 16.06 0s-4.888.019-6.595.094c-1.7.075-2.869.35-3.882.744a7.803 7.803 0 0 0-2.838 1.85A7.867 7.867 0 0 0 .901 5.52C.507 6.539.232 7.702.157 9.402c-.081 1.713-.1 2.257-.1 6.601s.019 4.888.094 6.595c.075 1.7.35 2.869.744 3.882a7.895 7.895 0 0 0 1.85 2.838 7.867 7.867 0 0 0 2.832 1.844c1.019.394 2.182.669 3.882.744 1.706.075 2.25.094 6.595.094s4.888-.018 6.595-.094c1.7-.075 2.869-.35 3.882-.744a8.181 8.181 0 0 0 4.682-4.682c.394-1.019.669-2.182.744-3.882.075-1.707.094-2.251.094-6.595s-.006-4.888-.081-6.595zm-2.882 13.065c-.069 1.563-.331 2.407-.55 2.969a5.307 5.307 0 0 1-3.038 3.038c-.563.219-1.413.481-2.969.55-1.688.075-2.194.094-6.464.094s-4.782-.018-6.464-.094c-1.563-.069-2.407-.331-2.969-.55a4.926 4.926 0 0 1-1.838-1.194 4.974 4.974 0 0 1-1.194-1.838c-.219-.563-.481-1.413-.55-2.969-.075-1.688-.094-2.194-.094-6.464s.019-4.782.094-6.464c.069-1.563.331-2.407.55-2.969a4.868 4.868 0 0 1 1.2-1.838A4.974 4.974 0 0 1 6.639 3.55c.563-.219 1.413-.481 2.969-.55 1.688-.075 2.194-.094 6.464-.094 4.276 0 4.782.019 6.464.094 1.563.069 2.407.331 2.969.55a4.914 4.914 0 0 1 1.838 1.194 4.974 4.974 0 0 1 1.194 1.838c.219.563.481 1.413.55 2.969.075 1.688.094 2.194.094 6.464s-.019 4.77-.094 6.457z" style="fill:var(--color1, #f4f4fd)"/>
      <path fill="#f4f4fd" d="M16.059 7.782c-4.538 0-8.22 3.682-8.22 8.22s3.682 8.22 8.22 8.22 8.22-3.682 8.22-8.22-3.682-8.22-8.22-8.22zm0 13.553a5.333 5.333 0 0 1 0-10.664 5.333 5.333 0 0 1 0 10.664zM26.524 7.457a1.919 1.919 0 1 1-3.838 0 1.919 1.919 0 0 1 3.838 0z" style="fill:var(--color1, #f4f4fd)"/>
    </symbol>
    <symbol id="icon-linkedin-1" viewBox="0 0 32 32">
      <path fill="#fff" d="M0 0h32v32H0V0z" style="fill:var(--color2, #fff)"/>
      <path fill="#f4f4fd" d="M31.992 32v-.001H32V20.263c0-5.741-1.236-10.164-7.948-10.164-3.227 0-5.392 1.771-6.276 3.449h-.093v-2.913h-6.364v21.364h6.627V21.42c0-2.785.528-5.479 3.977-5.479 3.399 0 3.449 3.179 3.449 5.657v10.401h6.62zM.528 10.636h6.635V32H.528V10.636zM3.843 0C1.722 0 0 1.721 0 3.843s1.721 3.879 3.843 3.879c2.121 0 3.843-1.757 3.843-3.879A3.846 3.846 0 0 0 3.843 0z" style="fill:var(--color1, #f4f4fd)"/>
    </symbol>
    <symbol id="icon-twitter-1" viewBox="0 0 32 32">
      <path fill="#f4f4fd" d="M32 6.078c-1.19.522-2.458.868-3.78 1.036a6.523 6.523 0 0 0 2.886-3.626 13.11 13.11 0 0 1-4.16 1.588A6.574 6.574 0 0 0 22.154 3c-3.632 0-6.556 2.948-6.556 6.562 0 .52.044 1.02.152 1.496-5.454-.266-10.28-2.88-13.522-6.862a6.605 6.605 0 0 0-.898 3.316 6.57 6.57 0 0 0 2.914 5.452 6.479 6.479 0 0 1-2.964-.808v.072c0 3.188 2.274 5.836 5.256 6.446a6.548 6.548 0 0 1-1.72.216 5.8 5.8 0 0 1-1.242-.112c.85 2.598 3.262 4.508 6.13 4.57a13.182 13.182 0 0 1-8.134 2.798c-.538 0-1.054-.024-1.57-.09A18.469 18.469 0 0 0 10.064 29c12.072 0 18.672-10 18.672-18.668 0-.29-.01-.57-.024-.848A13.087 13.087 0 0 0 32 6.078z" style="fill:var(--color1, #f4f4fd)"/>
    </symbol>
  </defs>
</svg>
